# xmcd
#
# Track frame offsets: 
#        150
#        14825
#        30300
#        43137
#        56012
#        70075
#        83837
#        95862
#        111275
#        124987
#        142037
#        153650
#        170400
#        186875
#        200287
#        215662
#
# Disc length: 3089 seconds
#
# Revision: 2
# Processed by: cddbd v1.5.2PL0 Copyright (c) Steve Scherf et al.
# Submitted via: ExactAudioCopyFreeDBPlugin 1.0
#
DISCID=f10c0f10
DTITLE=Various Artist - Country - The Eighties
DYEAR=1993
DGENRE=Country
TTITLE0=Dolly Parton and Willie Nelson-Everything is Beautiful (in it's 
TTITLE0=own way)
TTITLE1=The Gatlin Brothers-Chop Wood and carry Water
TTITLE2=The O'Kanes-Oh Darlin' (Why don't you care for me no more)
TTITLE3=Asleep At The Wheel-Walk on by
TTITLE4=Rodney Crowell-Brand new Rag
TTITLE5=Janie Fricke-But love me
TTITLE6=Larry Gatlin and the Gatlin Brothers Band-Broken Lady
TTITLE7=Rosanne Cashz-Never be you
TTITLE8=Sweethearts of the Radio-Gotta get away
TTITLE9=The Goldens-Country Comfort
TTITLE10=Lacy J. Dalton-Hard Times
TTITLE11=Ricky Skaggs-Woman you won't break mine
TTITLE12=Exile-Hang on to your Heart
TTITLE13=Bobby Bare and Lacy J. Dalton-It's a dirty Job
TTITLE14=Shenandoah-Mama knows
TTITLE15=Johnny Cash-Johnny 99
EXTD=YEAR: 1993
EXTT0=
EXTT1=
EXTT2=
EXTT3=
EXTT4=
EXTT5=
EXTT6=
EXTT7=
EXTT8=
EXTT9=
EXTT10=
EXTT11=
EXTT12=
EXTT13=
EXTT14=
EXTT15=
PLAYORDER=
